<svg width="815" height="673" viewBox="0 0 815 673" fill="none" xmlns="http://www.w3.org/2000/svg">
<path opacity="0.4" d="M737.5 77.6L736.754 76.934L736.753 76.9348L737.5 77.6ZM723.8 85L723.589 84.0225L722.8 84.1929V85H723.8ZM723.8 101.5V102.5H724.8V101.5H723.8ZM710.3 101.5H709.3V102.5H710.3V101.5ZM710.3 85.7H711.3V84.7849L710.389 84.7039L710.3 85.7ZM688 75.9L687.262 75.2252L686.609 75.9391L687.301 76.6152L688 75.9ZM697.6 65.4L698.249 64.6393L697.514 64.012L696.862 64.7252L697.6 65.4ZM720 70.2L719.394 69.4046L719.385 69.4117L719.375 69.4191L720 70.2ZM721.2 62.6L720.359 63.1408L720.368 63.1551L720.378 63.1692L721.2 62.6ZM718 60.1L717.553 60.9944L717.561 60.9984L717.569 61.0021L718 60.1ZM711.4 57.6L711.703 56.6471L711.699 56.6457L711.4 57.6ZM695.3 48.9L694.55 49.5617L694.557 49.5698L695.3 48.9ZM696.1 23.1L695.406 22.3796L695.4 22.3862L696.1 23.1ZM710.3 16.5L710.457 17.4876L711.3 17.3535V16.5H710.3ZM710.3 1.59999V0.599995H709.3V1.59999H710.3ZM723.8 1.59999H724.8V0.599995H723.8V1.59999ZM723.8 16.6H722.8V17.4554L723.645 17.5879L723.8 16.6ZM740.8 25L741.565 25.6446L742.157 24.9424L741.507 24.2929L740.8 25ZM732.2 35.2L731.58 35.9843L732.34 36.5856L732.965 35.8446L732.2 35.2ZM712.7 31.2L713.255 32.032L713.27 32.0216L713.285 32.0107L712.7 31.2ZM711.9 37.4L711.16 38.0727V38.0727L711.9 37.4ZM715.2 39.5L714.801 40.4171L714.808 40.4201L714.815 40.4231L715.2 39.5ZM722.8 42.1L723.111 41.1495L723.102 41.1468L723.094 41.1442L722.8 42.1ZM737.8 50.5L737.064 51.1771L737.071 51.1849L737.8 50.5ZM741.5 64.2C741.5 69.1648 739.917 73.3916 736.754 76.934L738.246 78.266C741.75 74.3417 743.5 69.6352 743.5 64.2H741.5ZM736.753 76.9348C733.657 80.4108 729.295 82.7905 723.589 84.0225L724.011 85.9775C730.038 84.6762 734.81 82.1225 738.247 78.2652L736.753 76.9348ZM722.8 85V101.5H724.8V85H722.8ZM723.8 100.5H710.3V102.5H723.8V100.5ZM711.3 101.5V85.7H709.3V101.5H711.3ZM710.389 84.7039C701.593 83.9221 694.384 80.7403 688.699 75.1848L687.301 76.6152C693.35 82.5264 701.007 85.8779 710.211 86.6961L710.389 84.7039ZM688.738 76.5748L698.338 66.0748L696.862 64.7252L687.262 75.2252L688.738 76.5748ZM696.951 66.1607C702.109 70.562 707.766 72.8 713.9 72.8V70.8C708.3 70.8 703.091 68.7714 698.249 64.6393L696.951 66.1607ZM713.9 72.8C716.733 72.8 719.035 72.2525 720.625 70.9809L719.375 69.4191C718.298 70.2809 716.534 70.8 713.9 70.8V72.8ZM720.606 70.9954C722.261 69.7346 723.1 68.0038 723.1 65.9H721.1C721.1 67.3962 720.539 68.532 719.394 69.4046L720.606 70.9954ZM723.1 65.9C723.1 64.4172 722.765 63.1042 722.022 62.0308L720.378 63.1692C720.835 63.8292 721.1 64.7161 721.1 65.9H723.1ZM722.041 62.0592C721.301 60.9076 720.05 59.9719 718.431 59.1979L717.569 61.0021C719.017 61.6947 719.899 62.4257 720.359 63.1408L722.041 62.0592ZM718.447 59.2056C716.91 58.437 714.651 57.585 711.703 56.6471L711.097 58.5529C714.016 59.4816 716.157 60.2963 717.553 60.9944L718.447 59.2056ZM711.699 56.6457C704.091 54.2641 698.93 51.4312 696.043 48.2302L694.557 49.5698C697.804 53.1688 703.376 56.1359 711.101 58.5543L711.699 56.6457ZM696.05 48.2384C693.23 45.0429 691.8 41.0537 691.8 36.2H689.8C689.8 41.4796 691.37 45.9571 694.55 49.5616L696.05 48.2384ZM691.8 36.2C691.8 31.1827 693.472 27.0794 696.8 23.8138L695.4 22.3862C691.661 26.0539 689.8 30.6839 689.8 36.2H691.8ZM696.794 23.8203C700.22 20.5206 704.753 18.395 710.457 17.4876L710.143 15.5124C704.113 16.4717 699.18 18.7461 695.406 22.3797L696.794 23.8203ZM711.3 16.5V1.59999H709.3V16.5H711.3ZM710.3 2.59999H723.8V0.599995H710.3V2.59999ZM722.8 1.59999V16.6H724.8V1.59999H722.8ZM723.645 17.5879C730.252 18.6243 735.721 21.3347 740.093 25.7071L741.507 24.2929C736.813 19.5986 730.948 16.709 723.955 15.6121L723.645 17.5879ZM740.035 24.3554L731.435 34.5554L732.965 35.8446L741.565 25.6446L740.035 24.3554ZM732.82 34.4157C728.203 30.7631 723.256 28.9 718 28.9V30.9C722.744 30.9 727.264 32.5702 731.58 35.9843L732.82 34.4157ZM718 28.9C715.569 28.9 713.558 29.347 712.115 30.3893L713.285 32.0107C714.242 31.3197 715.764 30.9 718 30.9V28.9ZM712.145 30.3679C710.661 31.3572 709.9 32.8058 709.9 34.6H711.9C711.9 33.4609 712.339 32.6428 713.255 32.032L712.145 30.3679ZM709.9 34.6C709.9 35.9439 710.302 37.1288 711.16 38.0727L712.64 36.7273C712.165 36.2045 711.9 35.5228 711.9 34.6H709.9ZM711.16 38.0727C711.966 38.9589 713.215 39.7276 714.801 40.4171L715.599 38.5829C714.118 37.9391 713.168 37.3077 712.64 36.7273L711.16 38.0727ZM714.815 40.4231C716.462 41.1093 719.034 41.9875 722.506 43.0558L723.094 41.1442C719.633 40.0791 717.138 39.224 715.585 38.5769L714.815 40.4231ZM722.489 43.0505C729.349 45.2931 734.164 48.0244 737.064 51.1771L738.536 49.8229C735.303 46.3089 730.118 43.4402 723.111 41.1495L722.489 43.0505ZM737.071 51.1849C739.987 54.2868 741.5 58.5835 741.5 64.2H743.5C743.5 58.2165 741.879 53.3798 738.529 49.8151L737.071 51.1849Z" fill="url(#paint0_linear)"/>
<path opacity="0.4" d="M51.5 647.6L50.7541 646.934L50.7533 646.935L51.5 647.6ZM37.8 655L37.589 654.023L36.8 654.193V655H37.8ZM37.8 671.5V672.5H38.8V671.5H37.8ZM24.3 671.5H23.3V672.5H24.3V671.5ZM24.3 655.7H25.3V654.785L24.3885 654.704L24.3 655.7ZM2 645.9L1.26197 645.225L0.609275 645.939L1.30107 646.615L2 645.9ZM11.6 635.4L12.2491 634.639L11.514 634.012L10.862 634.725L11.6 635.4ZM34 640.2L33.394 639.405L33.3845 639.412L33.3753 639.419L34 640.2ZM35.2 632.6L34.3588 633.141L34.3681 633.155L34.3778 633.169L35.2 632.6ZM32 630.1L31.5528 630.994L31.5606 630.998L31.5685 631.002L32 630.1ZM25.4 627.6L25.7032 626.647L25.6987 626.646L25.4 627.6ZM9.3 618.9L8.55012 619.562L8.55743 619.57L9.3 618.9ZM10.1 593.1L9.40633 592.38L9.39966 592.386L10.1 593.1ZM24.3 586.5L24.4571 587.488L25.3 587.353V586.5H24.3ZM24.3 571.6V570.6H23.3V571.6H24.3ZM37.8 571.6H38.8V570.6H37.8V571.6ZM37.8 586.6H36.8V587.455L37.645 587.588L37.8 586.6ZM54.8 595L55.5645 595.645L56.1566 594.942L55.5071 594.293L54.8 595ZM46.2 605.2L45.5796 605.984L46.3398 606.586L46.9645 605.845L46.2 605.2ZM26.7 601.2L27.2547 602.032L27.2703 602.022L27.2855 602.011L26.7 601.2ZM25.9 607.4L25.1601 608.073V608.073L25.9 607.4ZM29.2 609.5L28.8013 610.417L28.8083 610.42L28.8154 610.423L29.2 609.5ZM36.8 612.1L37.1107 611.15L37.1024 611.147L37.0941 611.144L36.8 612.1ZM51.8 620.5L51.064 621.177L51.0714 621.185L51.8 620.5ZM55.5 634.2C55.5 639.165 53.9169 643.392 50.7541 646.934L52.2459 648.266C55.7498 644.342 57.5 639.635 57.5 634.2H55.5ZM50.7533 646.935C47.6565 650.411 43.2954 652.79 37.589 654.023L38.011 655.977C44.0379 654.676 48.8102 652.122 52.2467 648.265L50.7533 646.935ZM36.8 655V671.5H38.8V655H36.8ZM37.8 670.5H24.3V672.5H37.8V670.5ZM25.3 671.5V655.7H23.3V671.5H25.3ZM24.3885 654.704C15.5934 653.922 8.38361 650.74 2.69893 645.185L1.30107 646.615C7.34973 652.526 15.0066 655.878 24.2115 656.696L24.3885 654.704ZM2.73803 646.575L12.338 636.075L10.862 634.725L1.26197 645.225L2.73803 646.575ZM10.9509 636.161C16.1086 640.562 21.7665 642.8 27.9 642.8V640.8C22.3002 640.8 17.0914 638.771 12.2491 634.639L10.9509 636.161ZM27.9 642.8C30.7331 642.8 33.0352 642.252 34.6247 640.981L33.3753 639.419C32.2981 640.281 30.5335 640.8 27.9 640.8V642.8ZM34.606 640.995C36.2608 639.735 37.1 638.004 37.1 635.9H35.1C35.1 637.396 34.5392 638.532 33.394 639.405L34.606 640.995ZM37.1 635.9C37.1 634.417 36.7653 633.104 36.0222 632.031L34.3778 633.169C34.8347 633.829 35.1 634.716 35.1 635.9H37.1ZM36.0412 632.059C35.3008 630.908 34.05 629.972 32.4315 629.198L31.5685 631.002C33.0167 631.695 33.8992 632.426 34.3588 633.141L36.0412 632.059ZM32.4472 629.206C30.91 628.437 28.6511 627.585 25.7032 626.647L25.0968 628.553C28.0156 629.482 30.1566 630.296 31.5528 630.994L32.4472 629.206ZM25.6987 626.646C18.0909 624.264 12.9298 621.431 10.0426 618.23L8.55743 619.57C11.8036 623.169 17.3758 626.136 25.1013 628.554L25.6987 626.646ZM10.0498 618.238C7.23026 615.043 5.8 611.054 5.8 606.2H3.8C3.8 611.48 5.36974 615.957 8.55016 619.562L10.0498 618.238ZM5.8 606.2C5.8 601.183 7.4719 597.079 10.8003 593.814L9.39966 592.386C5.66143 596.054 3.8 600.684 3.8 606.2H5.8ZM10.7936 593.82C14.2203 590.521 18.7534 588.395 24.4571 587.488L24.1429 585.512C18.1132 586.472 13.1797 588.746 9.40636 592.38L10.7936 593.82ZM25.3 586.5V571.6H23.3V586.5H25.3ZM24.3 572.6H37.8V570.6H24.3V572.6ZM36.8 571.6V586.6H38.8V571.6H36.8ZM37.645 587.588C44.2522 588.624 49.7205 591.335 54.0929 595.707L55.5071 594.293C50.8128 589.599 44.9478 586.709 37.955 585.612L37.645 587.588ZM54.0355 594.355L45.4355 604.555L46.9645 605.845L55.5645 595.645L54.0355 594.355ZM46.8204 604.416C42.203 600.763 37.2561 598.9 32 598.9V600.9C36.7439 600.9 41.2637 602.57 45.5796 605.984L46.8204 604.416ZM32 598.9C29.5688 598.9 27.5577 599.347 26.1145 600.389L27.2855 602.011C28.2423 601.32 29.7645 600.9 32 600.9V598.9ZM26.1453 600.368C24.6615 601.357 23.9 602.806 23.9 604.6H25.9C25.9 603.461 26.3385 602.643 27.2547 602.032L26.1453 600.368ZM23.9 604.6C23.9 605.944 24.302 607.129 25.1601 608.073L26.6399 606.727C26.1647 606.205 25.9 605.523 25.9 604.6H23.9ZM25.1601 608.073C25.9657 608.959 27.2155 609.728 28.8013 610.417L29.5987 608.583C28.1179 607.939 27.1676 607.308 26.6399 606.727L25.1601 608.073ZM28.8154 610.423C30.4623 611.109 33.0341 611.988 36.5059 613.056L37.0941 611.144C33.6326 610.079 31.1377 609.224 29.5846 608.577L28.8154 610.423ZM36.4893 613.05C43.349 615.293 48.1636 618.024 51.0641 621.177L52.5359 619.823C49.303 616.309 44.1177 613.44 37.1107 611.15L36.4893 613.05ZM51.0714 621.185C53.9872 624.287 55.5 628.584 55.5 634.2H57.5C57.5 628.216 55.8795 623.38 52.5286 619.815L51.0714 621.185Z" fill="url(#paint1_linear)"/>
<path d="M713.45 77.35C713.45 79.9167 712.65 82.0833 711.05 83.85C709.45 85.5833 707.2 86.7167 704.3 87.25V94.9H699.4V87.5C695.133 87.2333 691.617 85.7333 688.85 83L692.25 79.25C694.683 81.5167 697.5 82.65 700.7 82.65C702.533 82.65 704.017 82.2167 705.15 81.35C706.283 80.4833 706.85 79.2667 706.85 77.7C706.85 76.7333 706.65 75.9333 706.25 75.3C705.883 74.6667 705.233 74.1 704.3 73.6C703.367 73.1 702.017 72.5833 700.25 72.05C696.683 70.9833 694.117 69.6667 692.55 68.1C690.983 66.5333 690.2 64.5167 690.2 62.05C690.2 59.6167 691.033 57.6 692.7 56C694.4 54.3667 696.633 53.3667 699.4 53V45.65H704.3V53C705.967 53.2333 707.45 53.6833 708.75 54.35C710.083 54.9833 711.333 55.85 712.5 56.95L709.25 60.6C708.15 59.6 707 58.8667 705.8 58.4C704.6 57.9333 703.3 57.7 701.9 57.7C700.367 57.7 699.117 58.05 698.15 58.75C697.217 59.4167 696.75 60.3833 696.75 61.65C696.75 62.4833 696.933 63.1833 697.3 63.75C697.7 64.2833 698.383 64.8 699.35 65.3C700.317 65.7667 701.733 66.2833 703.6 66.85C706.9 67.8833 709.367 69.1667 711 70.7C712.633 72.2333 713.45 74.45 713.45 77.35Z" fill="#C2FF01"/>
<path opacity="0.34" d="M814.144 439.181C814.144 460.677 807.444 478.823 794.044 493.619C780.644 508.135 761.8 517.627 737.513 522.094V586.163H696.475V524.188C660.742 521.954 631.29 509.392 608.119 486.5L636.594 455.094C656.973 474.077 680.563 483.569 707.363 483.569C722.717 483.569 735.14 479.94 744.631 472.681C754.123 465.423 758.869 455.233 758.869 442.112C758.869 434.017 757.194 427.317 753.844 422.012C750.773 416.708 745.329 411.962 737.513 407.775C729.696 403.587 718.39 399.26 703.594 394.794C673.723 385.86 652.227 374.833 639.106 361.712C625.985 348.592 619.425 331.702 619.425 311.044C619.425 290.665 626.404 273.775 640.363 260.375C654.6 246.696 673.304 238.321 696.475 235.25V173.694H737.513V235.25C751.471 237.204 763.894 240.973 774.781 246.556C785.948 251.86 796.417 259.119 806.188 268.331L778.969 298.9C769.756 290.525 760.125 284.383 750.075 280.475C740.025 276.567 729.138 274.612 717.413 274.612C704.571 274.612 694.102 277.544 686.006 283.406C678.19 288.99 674.281 297.085 674.281 307.694C674.281 314.673 675.817 320.535 678.888 325.281C682.238 329.748 687.96 334.075 696.056 338.262C704.152 342.171 716.017 346.498 731.65 351.244C759.288 359.898 779.946 370.646 793.625 383.487C807.304 396.329 814.144 414.894 814.144 439.181Z" fill="#111111"/>
<path d="M27.45 614.35C27.45 616.917 26.65 619.083 25.05 620.85C23.45 622.583 21.2 623.717 18.3 624.25V631.9H13.4V624.5C9.13333 624.233 5.61667 622.733 2.85 620L6.25 616.25C8.68333 618.517 11.5 619.65 14.7 619.65C16.5333 619.65 18.0167 619.217 19.15 618.35C20.2833 617.483 20.85 616.267 20.85 614.7C20.85 613.733 20.65 612.933 20.25 612.3C19.8833 611.667 19.2333 611.1 18.3 610.6C17.3667 610.1 16.0167 609.583 14.25 609.05C10.6833 607.983 8.11667 606.667 6.55 605.1C4.98333 603.533 4.2 601.517 4.2 599.05C4.2 596.617 5.03333 594.6 6.7 593C8.4 591.367 10.6333 590.367 13.4 590V582.65H18.3V590C19.9667 590.233 21.45 590.683 22.75 591.35C24.0833 591.983 25.3333 592.85 26.5 593.95L23.25 597.6C22.15 596.6 21 595.867 19.8 595.4C18.6 594.933 17.3 594.7 15.9 594.7C14.3667 594.7 13.1167 595.05 12.15 595.75C11.2167 596.417 10.75 597.383 10.75 598.65C10.75 599.483 10.9333 600.183 11.3 600.75C11.7 601.283 12.3833 601.8 13.35 602.3C14.3167 602.767 15.7333 603.283 17.6 603.85C20.9 604.883 23.3667 606.167 25 607.7C26.6333 609.233 27.45 611.45 27.45 614.35Z" fill="#C2FF01"/>
<defs>
<linearGradient id="paint0_linear" x1="741" y1="50" x2="707.615" y2="67.3331" gradientUnits="userSpaceOnUse">
<stop stop-color="#C2FF01"/>
<stop offset="1" stop-color="#C2FF01" stop-opacity="0"/>
</linearGradient>
<linearGradient id="paint1_linear" x1="53.3692" y1="608.906" x2="23.6894" y2="627.3" gradientUnits="userSpaceOnUse">
<stop stop-color="#C2FF01"/>
<stop offset="1" stop-color="#C2FF01" stop-opacity="0"/>
</linearGradient>
</defs>
</svg>
